<?xml version="1.0" encoding="utf-8"?>
<!-- Generator: Adobe Illustrator 24.0.1, SVG Export Plug-In . SVG Version: 6.00 Build 0)  -->
<svg version="1.1" xmlns="http://www.w3.org/2000/svg" xmlns:xlink="http://www.w3.org/1999/xlink" x="0px" y="0px"
	 viewBox="0 0 794 614" style="enable-background:new 0 0 794 614;" xml:space="preserve">
<style type="text/css">
	.st0{display:none;}
	.st1{display:inline;}
	.st2{fill-rule:evenodd;clip-rule:evenodd;}
	.st3{fill-rule:evenodd;clip-rule:evenodd;fill:url(#SVGID_1_);}
	.st4{fill-rule:evenodd;clip-rule:evenodd;fill:#FFFFFF;}
</style>
<g id="BG" class="st0">
	<g class="st1">
		<rect y="2" class="st2" width="792" height="612"/>
	</g>
</g>
<g id="NCX_Logo">
	<linearGradient id="SVGID_1_" gradientUnits="userSpaceOnUse" x1="380.3856" y1="313.3367" x2="380.3856" y2="301.1363">
		<stop  offset="0" style="stop-color:#22B4FB"/>
		<stop  offset="0.6791" style="stop-color:#006EF3"/>
	</linearGradient>
	<path class="st3" d="M385.34,313.29v-10.57h0.33v10.57H385.34z M385.34,313.29l-0.35-10.57h-0.33l0.35,10.57H385.34z M385,313.29
		l-0.7-10.57h-0.33l0.7,10.57H385z M384.66,313.29l-1.04-10.57h-0.33l1.04,10.57H384.66z M384.32,313.29l-1.39-10.57h-0.34
		l1.39,10.57H384.32z M383.98,313.29l-1.74-10.57h-0.34l1.74,10.57H383.98z M383.63,313.29l-2.1-10.57h-0.34l2.1,10.57H383.63z
		 M383.29,313.29l-2.46-10.57h-0.34l2.46,10.57H383.29z M382.95,313.29l-2.82-10.57h-0.35l2.82,10.57H382.95z M382.59,313.29
		l-3.17-10.57h-0.35l3.17,10.57H382.59z M375.1,302.71v10.57h0.33v-10.57H375.1z M375.43,302.71l0.37,10.57h0.33l-0.37-10.57H375.43
		z M375.77,302.71l0.75,10.57h0.33l-0.75-10.57H375.77z M376.1,302.71l1.1,10.57h0.33l-1.1-10.57H376.1z M376.44,302.71l1.49,10.57
		h0.34l-1.49-10.57H376.44z M376.78,302.71l1.85,10.57h0.34l-1.85-10.57H376.78z M377.12,302.71l2.25,10.57h0.34l-2.25-10.57H377.12
		z M377.46,302.71l2.69,10.57h0.34l-2.69-10.57H377.46z M377.8,302.71l3.08,10.57h0.35l-3.08-10.57H377.8z M378.15,302.71l1.4,3.95
		l2.32,6.57l0.02,0.06h0.36l-0.03-0.08l-2.32-6.57l-1.39-3.93H378.15z"/>
</g>
<g id="NCX_Text">
	<g id="Text">
		<path class="st4" d="M407.42,310.31c-0.79,1.88-2.64,3.12-4.68,3.12c-1.99,0-3.79-1.17-4.62-2.98c-0.63-1.37-0.63-3.52,0-4.89
			c0.82-1.81,2.63-2.99,4.62-2.99c2.04,0,3.89,1.24,4.68,3.12l0.03,0.06h-1.09l-0.01-0.02c-0.71-1.33-2.1-2.17-3.6-2.17
			c-1.39,0-2.67,0.71-3.43,1.87c-0.9,1.39-0.9,3.75,0,5.14c0.75,1.16,2.04,1.87,3.43,1.87c1.51,0,2.89-0.84,3.6-2.17l0.01-0.02h1.09
			L407.42,310.31z M395.35,312.1v-9.38h0.99v10.57h-1.35l-6.74-9.31v9.31h-0.99v-10.57h1.29L395.35,312.1z M412.22,307.23l3.44-4.51
			h1.24l-4.06,5.33l3.99,5.24h-1.24l-3.37-4.43l-3.37,4.43h-1.21l3.96-5.24l-4.06-5.33h1.24L412.22,307.23z"/>
	</g>
</g>
</svg>
